<?xml version="1.0" encoding="utf-8"?>
<!-- Generator: Adobe Illustrator 23.0.3, SVG Export Plug-In . SVG Version: 6.00 Build 0)  -->
<svg version="1.1" id="Layer_1" xmlns="http://www.w3.org/2000/svg" xmlns:xlink="http://www.w3.org/1999/xlink" x="0px" y="0px"
	 viewBox="0 0 431 81" style="enable-background:new 0 0 431 81;" xml:space="preserve">
<style type="text/css">
	.st0{fill:#EA5A0C;}
</style>
<g>
	<path d="M107.44,62.36c-5.21,0-9.35-1.5-12.42-4.51c-3.07-3-4.61-7.64-4.61-13.92V14.29h18.02v26.74c0,1.87,0.4,3.32,1.2,4.36
		c0.8,1.04,2.04,1.55,3.71,1.55c1.93,0,3.57-0.62,4.91-1.85c1.34-1.23,2-3.25,2-6.06V14.29h18.03v47.07h-17.02v-4.61
		c-1.47,1.74-3.32,3.1-5.56,4.11C113.46,61.86,110.71,62.36,107.44,62.36z"/>
	<path d="M170.32,80.59c-4.34,0-8.38-0.57-12.12-1.7c-3.74-1.14-7.38-2.9-10.92-5.31l5.21-12.82c3.2,1.73,6.23,3,9.06,3.81
		c2.84,0.8,5.42,1.2,7.76,1.2c3.34,0,6.01-0.7,8.01-2.1c2-1.4,3-3.57,3-6.51v-2.3c-1.4,1.4-3.14,2.5-5.21,3.31
		c-2.07,0.8-4.44,1.2-7.11,1.2c-3.87,0-7.53-0.88-10.97-2.65c-3.44-1.77-6.23-4.37-8.36-7.81c-2.14-3.44-3.2-7.63-3.2-12.57
		c0-5.01,1.07-9.21,3.2-12.62c2.14-3.4,4.92-5.99,8.36-7.76c3.44-1.77,7.09-2.65,10.97-2.65c3,0,5.61,0.5,7.81,1.5
		c2.2,1,4.04,2.37,5.51,4.11v-4.61h17.02v39.86c0,5.74-1.17,10.58-3.5,14.52c-2.34,3.94-5.61,6.91-9.81,8.91
		C180.84,79.59,175.93,80.59,170.32,80.59z M172.43,44.94c1.8,0,3.36-0.35,4.66-1.05s2.3-1.7,3-3.01c0.7-1.3,1.05-2.82,1.05-4.56
		c0-1.8-0.35-3.34-1.05-4.61c-0.7-1.27-1.7-2.25-3-2.96s-2.86-1.05-4.66-1.05c-1.74,0-3.27,0.35-4.61,1.05
		c-1.34,0.7-2.35,1.69-3.06,2.96c-0.7,1.27-1.05,2.8-1.05,4.61c0,1.74,0.35,3.26,1.05,4.56c0.7,1.3,1.72,2.3,3.06,3.01
		C169.16,44.59,170.69,44.94,172.43,44.94z"/>
	<path d="M232.51,62.36c-5.21,0-9.83-1.02-13.87-3.05c-4.04-2.04-7.23-4.91-9.56-8.61c-2.34-3.71-3.5-7.99-3.5-12.87
		c0-4.87,1.17-9.15,3.5-12.82c2.34-3.67,5.52-6.54,9.56-8.61c4.04-2.07,8.66-3.1,13.87-3.1c3.41,0,6.53,0.42,9.36,1.25
		c2.84,0.84,5.63,2.15,8.36,3.96l-5.91,13.42c-2.27-1.14-4.29-1.95-6.06-2.45c-1.77-0.5-3.69-0.75-5.76-0.75
		c-1.67,0-3.17,0.37-4.51,1.1c-1.34,0.74-2.37,1.77-3.1,3.1c-0.74,1.34-1.1,2.97-1.1,4.91c0,1.87,0.37,3.49,1.1,4.86
		c0.73,1.37,1.77,2.42,3.1,3.15c1.34,0.74,2.84,1.1,4.51,1.1c2.07,0,3.99-0.25,5.76-0.75c1.77-0.5,3.79-1.32,6.06-2.45l5.91,13.42
		c-2.74,1.8-5.53,3.12-8.36,3.96S235.92,62.36,232.51,62.36z"/>
	<path d="M278.68,61.96c-4.21,0-7.4-1.05-9.56-3.16c-2.17-2.1-3.26-5.39-3.26-9.86V19.2h-10.91v-4.91h10.91V0.87h5.61v13.42h12.82
		v4.91h-12.82v29.44c0,2.94,0.69,5.07,2.05,6.41c1.37,1.34,3.36,2,5.96,2c0.8,0,1.67-0.03,2.6-0.1c0.93-0.07,1.67-0.17,2.2-0.3v4.61
		c-0.6,0.27-1.44,0.45-2.5,0.55C280.72,61.91,279.68,61.96,278.68,61.96z"/>
	<path d="M318.34,62.36c-4.61,0-8.7-0.99-12.27-2.95c-3.57-1.97-6.38-4.79-8.41-8.46c-2.04-3.67-3.06-8.04-3.06-13.12
		c0-5.01,1-9.35,3-13.02c2-3.67,4.71-6.51,8.11-8.51c3.41-2,7.24-3,11.52-3c4.54,0,8.43,0.92,11.67,2.75
		c3.24,1.84,5.71,4.29,7.41,7.36c1.7,3.07,2.55,6.48,2.55,10.21c0,0.94-0.15,1.95-0.45,3.05c-0.3,1.1-0.62,1.99-0.95,2.65h-37.15
		c0.2,3.81,1.09,7.06,2.66,9.76c1.57,2.7,3.69,4.77,6.36,6.21c2.67,1.44,5.81,2.15,9.41,2.15c3.27,0,6.13-0.52,8.56-1.55
		c2.44-1.03,4.79-2.52,7.06-4.46l2.5,4.21c-2.47,2.27-5.21,3.96-8.21,5.06C325.65,61.81,322.21,62.36,318.34,62.36z M300.31,34.52
		h32.55c0.13-0.2,0.2-0.43,0.2-0.7s0-0.53,0-0.8c0-2.87-0.6-5.41-1.8-7.61s-2.96-3.94-5.26-5.21c-2.3-1.27-5.19-1.9-8.66-1.9
		c-2.8,0-5.43,0.65-7.86,1.95c-2.44,1.3-4.45,3.15-6.06,5.56C301.81,28.21,300.78,31.12,300.31,34.52z"/>
	<path d="M353.49,61.36V14.29h5.41v8.91c1.4-3.07,3.54-5.49,6.41-7.26c2.87-1.77,6.34-2.65,10.41-2.65c5.47,0,9.73,1.55,12.77,4.66
		c3.04,3.11,4.56,8,4.56,14.67v28.74h-5.51V33.02c0-5.21-1.07-8.96-3.2-11.27c-2.14-2.3-5.34-3.46-9.61-3.46
		c-5.07,0-8.95,1.74-11.62,5.21c-2.67,3.47-4.01,8.15-4.01,14.02v23.83H353.49z"/>
	<path d="M425.39,61.96c-4.21,0-7.4-1.05-9.56-3.16c-2.17-2.1-3.26-5.39-3.26-9.86V19.2h-10.92v-4.91h10.92V0.87h5.61v13.42H431
		v4.91h-12.82v29.44c0,2.94,0.68,5.07,2.05,6.41c1.37,1.34,3.35,2,5.96,2c0.8,0,1.67-0.03,2.6-0.1c0.93-0.07,1.67-0.17,2.2-0.3v4.61
		c-0.6,0.27-1.44,0.45-2.5,0.55C427.43,61.91,426.39,61.96,425.39,61.96z"/>
</g>
<g>
	<g>
		<polygon class="st0" points="61.68,58.83 22.39,2.72 26.48,-0.15 67.77,58.83 		"/>
		<polygon class="st0" points="6.55,58.83 0.45,58.83 41.75,-0.15 45.84,2.72 		"/>
	</g>
	<path class="st0" d="M52.51,58.83h-4.99c0-7.39-6.01-13.4-13.4-13.4s-13.4,6.01-13.4,13.4h-4.99c0-10.14,8.25-18.4,18.4-18.4
		S52.51,48.69,52.51,58.83z"/>
	<path class="st0" d="M44.56,58.83h-4.99c0-3.01-2.45-5.45-5.45-5.45s-5.45,2.45-5.45,5.45h-4.99c0-5.76,4.69-10.45,10.45-10.45
		S44.56,53.07,44.56,58.83z"/>
</g>
</svg>
