<?xml version="1.0" encoding="utf-8"?>
<!-- Generator: Adobe Illustrator 23.0.3, SVG Export Plug-In . SVG Version: 6.00 Build 0)  -->
<svg version="1.1" id="Layer_1" xmlns="http://www.w3.org/2000/svg" xmlns:xlink="http://www.w3.org/1999/xlink" x="0px" y="0px"
	 viewBox="0 0 92 81" style="enable-background:new 0 0 92 81;" xml:space="preserve">
<style type="text/css">
	.st0{fill:#EA5A0C;}
</style>
<g>
	<g>
		<polygon class="st0" points="83.71,80.05 30.28,3.75 35.84,-0.15 92,80.05 		"/>
		<polygon class="st0" points="8.74,80.05 0.45,80.05 56.61,-0.15 62.17,3.75 		"/>
	</g>
	<path class="st0" d="M71.24,80.05h-6.79c0-10.05-8.18-18.23-18.22-18.23S28,70,28,80.05h-6.79c0-13.79,11.22-25.02,25.02-25.02
		S71.24,66.26,71.24,80.05z"/>
	<path class="st0" d="M60.43,80.05h-6.79c0-4.09-3.33-7.42-7.42-7.42s-7.42,3.33-7.42,7.42h-6.79c0-7.83,6.37-14.21,14.21-14.21
		S60.43,72.22,60.43,80.05z"/>
</g>
</svg>
